<svg class="c-third_party_auth__icon" xmlns="http://www.w3.org/2000/svg" viewBox="0 0 20 20"><path d="M10.16 -2.38419e-07C7.8 0.56 6.9 2.1 6.86 4.14C7.76 4.06 8.27 3.96 8.99 3.23C9.84 2.37 10.22 1.26 10.22 0.43C10.22 0.219999 10.2 0.129999 10.16 -2.38419e-07ZM10.33 3.84C9.86 3.84 9.28 3.95 8.59 4.19C7.94 4.42 7.46 4.54 7.16 4.54C6.92 4.54 6.46 4.43 5.77 4.23C5.07 4.03 4.47 3.92 3.99 3.92C1.69 3.92 1.19209e-07 6.11 1.19209e-07 9.22C1.19209e-07 10.86 0.49 12.58 1.48 14.35C2.47 16.12 3.49 17 4.5 17C4.84 17 5.29 16.89 5.83 16.65C6.36 16.41 6.84 16.32 7.26 16.32C7.69 16.32 8.2 16.43 8.77 16.64C9.39 16.87 9.85 17 10.18 17C11.9 17 13.48 14.12 14 12.41C12.8 12.05 11.72 10.53 11.72 8.85C11.72 7.3 12.46 6.44 13.52 5.53C12.82 4.66 11.93 3.84 10.33 3.84Z" fill="#1D1C1D"></path></svg>